<svg width="20" height="20" viewBox="0 0 20 20" fill="none" xmlns="http://www.w3.org/2000/svg">
<path d="M7.775 19.65H1.5C1.1 19.65 0.75 19.5 0.45 19.2C0.15 18.9 0 18.55 0 18.15V3.60001C0 3.20001 0.129167 2.85001 0.3875 2.55001C0.645833 2.25001 0.866667 2.10001 1.05 2.10001H6.1C6.21667 1.51667 6.50417 1.03751 6.9625 0.662506C7.42083 0.287506 7.95 0.100006 8.55 0.100006C9.15 0.100006 9.67916 0.287506 10.1375 0.662506C10.5958 1.03751 10.8833 1.51667 11 2.10001H16.05C16.45 2.10001 16.8 2.25001 17.1 2.55001C17.4 2.85001 17.55 3.20001 17.55 3.60001V8.675H16.05V3.60001H13.4V6.85001H4.15V3.60001H1.5V18.15H7.775V19.65ZM12.5 19.025L8.5 15.025L9.575 13.95L12.5 16.875L18.475 10.9L19.55 11.975L12.5 19.025ZM9 3.50001C9.28333 3.50001 9.52083 3.40417 9.7125 3.21251C9.90417 3.02084 10 2.78334 10 2.50001C10 2.21667 9.90417 1.97917 9.7125 1.78751C9.52083 1.59584 9.28333 1.50001 9 1.50001C8.71667 1.50001 8.47917 1.59584 8.2875 1.78751C8.09583 1.97917 8 2.21667 8 2.50001C8 2.78334 8.09583 3.02084 8.2875 3.21251C8.47917 3.40417 8.71667 3.50001 9 3.50001Z" fill="#279500"/>
</svg>
